<?xml version="1.0" encoding="UTF-8"?><svg id="a" xmlns="http://www.w3.org/2000/svg" viewBox="0 0 85.04 201.2"><defs><style>.b,.c{fill:#1d1d1b;}.c{stroke:#1d1d1b;stroke-width:.57px;}</style></defs><g><path class="b" d="M21.27,159h-6.02v-9.46h1.42v8.21h4.65l-.06,1.25Z"/><path class="b" d="M23.27,149.75l-1.04-.19c1.18-2.01,2.08-2.98,2.31-4.24h1.52c-.42,1.63-1.34,2.41-2.79,4.43Z"/><path class="b" d="M27.67,159v-9.46h1.42v9.46h-1.42Z"/><path class="b" d="M35.26,159.19c-1.2,0-2.45-.29-3.15-.7l.4-1.33c.84,.51,1.73,.78,2.81,.78,1.2,0,1.96-.48,1.96-1.37,0-2.05-4.88-1.8-4.88-4.6,0-1.65,1.54-2.62,3.48-2.62,.84,0,1.79,.11,2.47,.32l-.25,1.35c-.55-.23-1.48-.42-2.22-.42-1.46,0-2.07,.47-2.07,1.23,0,1.8,4.88,1.65,4.88,4.64,0,1.63-1.27,2.72-3.42,2.72Z"/><path class="b" d="M45.78,159.19c-2.6,0-4.96-1.88-4.96-4.73,0-3.25,2.41-5.11,5.24-5.11,2.55,0,4.9,1.84,4.9,4.75,0,3.25-2.43,5.09-5.19,5.09Zm.17-8.64c-1.92,0-3.61,1.24-3.61,3.74,0,2.32,1.52,3.7,3.49,3.7,2.17,0,3.63-1.52,3.63-3.76,0-2.47-1.69-3.69-3.51-3.69Z"/><path class="b" d="M59.78,159h-6.02v-9.46h1.43v8.21h4.65l-.06,1.25Z"/><path class="b" d="M68.71,159.06l-1.25-3.06h-3.99l-1.22,3h-1.39l3.91-9.46h1.46l3.88,9.4-1.41,.11Zm-3.02-7.41c-.08-.19-.13-.44-.15-.7h-.13c-.02,.27-.08,.49-.15,.7l-1.35,3.27h3.12l-1.33-3.27Z"/><path class="b" d="M34.23,178.16c-.14,.53-.24,1.36-.24,1.84h-.99c0-.38,.06-.93,.14-1.31h-.08l-2.1,1.3c-.26,.16-.35,.18-.59,.18-.75,0-1.26-.67-1.26-2.13,0-3.11,2.29-5.27,3.99-5.27,.24,0,.46,.03,1.5,.22l1.15-4.32,1.06-.08-2.58,9.57Zm.11-4.26c-1.01-.22-1.23-.24-1.41-.24-1.1,0-2.77,1.87-2.77,4.48,0,.24,.03,.54,.11,.82l.42,.22c.64-.26,1.84-.83,2.59-1.26l1.06-4.02Z"/><path class="b" d="M38.26,176.82h-.43c-.03,.29-.05,.48-.05,.74,0,1.04,.43,1.67,1.18,1.67,.45,0,.78-.08,2.34-1.14l.34,.74c-1.63,1.15-2.19,1.34-2.87,1.34-1.22,0-2.05-.93-2.05-2.51,0-2.96,2.05-4.88,3.71-4.88,1.09,0,1.7,.56,1.7,1.57,0,1.3-1.33,2.48-3.87,2.48Zm2-3.23c-.83,0-1.86,.88-2.29,2.5h.3c1.73,0,2.82-.61,2.82-1.7,0-.54-.35-.8-.83-.8Z"/><path class="b" d="M44.02,180h-1.04l3.01-11.33,1.07-.08-3.04,11.41Z"/><path class="b" d="M47.73,180h-1.04l3.01-11.33,1.07-.08-3.04,11.41Z"/><path class="b" d="M52.28,176.82h-.43c-.03,.29-.05,.48-.05,.74,0,1.04,.43,1.67,1.18,1.67,.45,0,.78-.08,2.34-1.14l.34,.74c-1.63,1.15-2.19,1.34-2.87,1.34-1.22,0-2.05-.93-2.05-2.51,0-2.96,2.05-4.88,3.71-4.88,1.09,0,1.7,.56,1.7,1.57,0,1.3-1.33,2.48-3.87,2.48Zm2-3.23c-.83,0-1.86,.88-2.29,2.5h.3c1.73,0,2.82-.61,2.82-1.7,0-.54-.35-.8-.83-.8Z"/><path class="b" d="M18.16,201.2c-1.26,0-2.58-.3-3.32-.74l.42-1.4c.88,.54,1.82,.82,2.96,.82,1.26,0,2.06-.5,2.06-1.44,0-2.16-5.14-1.9-5.14-4.84,0-1.74,1.62-2.76,3.66-2.76,.88,0,1.88,.12,2.6,.34l-.26,1.42c-.58-.24-1.56-.44-2.34-.44-1.54,0-2.18,.5-2.18,1.3,0,1.9,5.14,1.74,5.14,4.88,0,1.72-1.34,2.86-3.6,2.86Z"/><path class="b" d="M32.76,192.34h-3.88v8.66h-1.48v-8.66h-3.88l-.1-1.3h9.46l-.12,1.3Z"/><path class="b" d="M39.54,201.2c-2.74,0-5.22-1.98-5.22-4.98,0-3.42,2.54-5.38,5.52-5.38,2.68,0,5.16,1.94,5.16,5,0,3.42-2.56,5.36-5.46,5.36Zm.18-9.1c-2.02,0-3.8,1.3-3.8,3.94,0,2.44,1.6,3.9,3.68,3.9,2.28,0,3.82-1.6,3.82-3.96,0-2.6-1.78-3.88-3.7-3.88Z"/><path class="b" d="M54.48,201.12l-3.6-4.28h-1.52v4.16h-1.42v-9.96h.76c.28,0,1.68-.08,2.4-.08,2.12,0,3.48,.96,3.48,2.74,0,1.44-.88,2.42-2.22,2.78l3.7,4.42-1.58,.22Zm-3.56-9c-.42,0-1.22,.02-1.56,.04v3.54h1.64c1.22,0,2.1-.7,2.1-1.86s-.8-1.72-2.18-1.72Z"/><path class="b" d="M58.1,201v-9.96h1.5v9.96h-1.5Z"/><path class="b" d="M70.14,201h-6.7v-9.96h6.48l-.1,1.3h-4.9v2.94h4.54v1.26h-4.54v3.16h5.3l-.08,1.3Z"/></g><path class="b" d="M84.85,15.95c-.21-.31-.56-.5-.93-.5h-6.63l1.27-6.92c.06-.32-.03-.66-.24-.91-.21-.26-.53-.4-.86-.4h-6.91V1.24c0-.55-.4-1.02-.94-1.1-.05,0-.93-.14-2.45-.14-2.32,0-6.13,.33-10.66,1.94-4.3,1.53-9.24,4.24-14.14,8.91-4.89-4.67-9.84-7.38-14.13-8.91C23.72,.33,19.91,0,17.59,0c-1.52,0-2.4,.14-2.45,.14-.54,.09-.94,.55-.94,1.1V7.23H7.56c-.33,0-.64,.14-.85,.4-.21,.25-.3,.59-.24,.91l1.27,6.92H1.11c-.37,0-.72,.18-.93,.5-.2,.31-.24,.7-.1,1.04L14.29,56.92s0,.01,0,.02c.02,.04,.04,.08,.07,.13,0,0,0,0,.01,.01,.02,.04,.05,.07,.07,.11,0,0,.01,.02,.02,.03,.03,.04,.07,.06,.09,.09,.01,0,.02,.01,.03,.02,.07,.07,.15,.12,.24,.16,0,0,.01,0,.01,0,.05,.02,.1,.04,.14,.06h.01s.09,.02,.13,.03c0,0,.02,0,.03,0h.01s.08,.01,.13,.01h0s.02,0,.03,0c.04,0,.08,0,.12,0,0,0,.01,0,.02,0,.05,0,.09-.02,.14-.03,0,0,.01,0,.01,0,.01,0,.02,0,.03-.01,.01,0,.03,0,.04-.01,.02,0,.04-.01,.06-.02,0,0,.02,0,.03,0,.02-.01,.04-.03,.06-.04,0,0,.01,0,.02,0,.02-.01,.04-.03,.06-.04,0,0,.01-.01,.02-.01,.02-.01,.04-.03,.06-.04l.02-.02s.04-.03,.05-.04c.01,0,.02-.02,.03-.03,.01-.01,.03-.02,.04-.04,.01-.01,.03-.03,.04-.04,0-.01,.02-.02,.03-.03,.01-.01,.03-.03,.04-.05,0-.01,.01-.02,.02-.03,.01-.02,.02-.04,.03-.06,0-.01,.01-.02,.01-.03,.01-.02,.02-.04,.03-.06,0,0,.01-.02,.01-.03,0-.02,.01-.04,.02-.06,0-.01,0-.03,.01-.04,0,0,0-.01,0-.02h0c.03-.12,1.02-3.76,4.71-8.02,3.55-4.09,9.59-8.77,19.82-11.53v6.8c0,.32,.14,.63,.39,.84,.25,.21,.58,.3,.9,.25h0c.06-.01,.91-.14,2.32-.14,2.22,0,5.84,.31,9.99,1.87-.1,.29-.22,.59-.36,.9-.78,1.75-2.16,3.77-4.62,5.87-.47,.4-.52,1.1-.12,1.57,.22,.26,.53,.39,.84,.39,.26,0,.51-.09,.72-.27,2.68-2.29,4.29-4.6,5.21-6.66,.14-.33,.27-.64,.38-.95,3.88,1.79,8.08,4.71,12.02,9.49,.22,.26,.53,.41,.86,.41,.05,0,.09,0,.14-.01,.04,0,.09,.01,.13,.01,.44,0,.85-.26,1.03-.69l14.2-39.92c.14-.34,.1-.74-.1-1.04ZM2.78,17.68h5.37l4.2,28.86L2.78,17.68Zm11.42,26.61l-3.98-27.65s0-.05,0-.07c0-.16-.04-.32-.1-.46l-1.22-6.66h5.3V44.29Zm54.14,9.26c-3.7-3.89-7.57-6.42-11.18-8.03,.14-.76,.18-1.45,.18-2.02,0-1.21-.2-1.94-.22-2.02-.17-.59-.78-.93-1.37-.77-.59,.17-.93,.78-.77,1.38h0c.02,.06,.14,.57,.14,1.41,0,.34-.02,.73-.08,1.16-4.35-1.59-8.13-1.92-10.51-1.92-.53,0-1,.01-1.38,.04v-7c0-.35-.16-.67-.43-.88-.27-.21-.62-.29-.95-.21-11.67,2.83-18.58,8.15-22.54,12.81-1.18,1.39-2.1,2.72-2.81,3.89V2.25c.31-.01,.7-.03,1.16-.03,2.12,0,5.67,.29,9.92,1.81,4.25,1.52,9.18,4.25,14.1,9.16,.2,.21,.49,.32,.78,.32s.58-.12,.79-.32c4.92-4.91,9.85-7.65,14.1-9.16,4.25-1.52,7.8-1.81,9.92-1.81,.46,0,.85,.01,1.16,.03V53.55Zm2.23-7.8V9.45h5.57l-1.22,6.66c-.06,.14-.1,.3-.1,.46v.07l-4.25,29.11Zm2.12,.79l4.2-28.86h5.37l-9.57,28.86Zm-41.1,3.92c-1.96,0-3.56,1.59-3.56,3.56s1.59,3.56,3.56,3.56,3.56-1.59,3.56-3.56-1.59-3.56-3.56-3.56Z"/><path class="b" d="M66.98,135.19c-.53,0-.96-.43-.96-.96h0c0-.53,.43-.96,.96-.96h3.08c.53,0,.96,.43,.96,.96h0c0,.53-.43,.96-.96,.96h-3.08Zm-8.62,0c-.53,0-.96-.43-.96-.96h0c0-.53,.43-.96,.96-.96h3.83c.53,0,.96,.43,.96,.96h0c0,.53-.43,.96-.96,.96h-3.83Zm-8.62,0c-.53,0-.95-.43-.95-.96h0c0-.53,.43-.96,.95-.96h3.83c.53,0,.96,.43,.96,.96h0c0,.53-.43,.96-.96,.96h-3.83Zm-8.61,0c-.53,0-.96-.43-.96-.96h0c0-.53,.43-.96,.96-.96h3.83c.53,0,.96,.43,.96,.96h0c0,.53-.43,.96-.96,.96h-3.83Zm-8.62,0c-.53,0-.96-.43-.96-.96h0c0-.53,.43-.96,.96-.96h3.83c.53,0,.96,.43,.96,.96h0c0,.53-.43,.96-.96,.96h-3.83Zm-8.62,0c-.53,0-.96-.43-.96-.96h0c0-.53,.43-.96,.96-.96h3.83c.53,0,.96,.43,.96,.96h0c0,.53-.43,.96-.96,.96h-3.83Zm-8.61,0c-.53,0-.96-.43-.96-.96h0c0-.53,.43-.96,.96-.96h3.83c.53,0,.96,.43,.96,.96h0c0,.53-.43,.96-.96,.96h-3.83Zm51.7,43.2c-.53,0-.96-.43-.96-.96h0c0-.53,.43-.96,.96-.96h3.08c.53,0,.96,.43,.96,.96h0c0,.53-.43,.96-.96,.96h-3.08Zm-51.7,0c-.53,0-.96-.43-.96-.96h0c0-.53,.43-.96,.96-.96h3.83c.53,0,.96,.43,.96,.96h0c0,.53-.43,.96-.96,.96h-3.83Z"/><path class="b" d="M66.98,72.85c-.53,0-.96-.43-.96-.96h0c0-.53,.43-.96,.96-.96h3.08c.53,0,.96,.43,.96,.96h0c0,.53-.43,.96-.96,.96h-3.08Zm-8.62,0c-.53,0-.96-.43-.96-.96h0c0-.53,.43-.96,.96-.96h3.83c.53,0,.96,.43,.96,.96h0c0,.53-.43,.96-.96,.96h-3.83Zm-8.62,0c-.53,0-.95-.43-.95-.96h0c0-.53,.43-.96,.95-.96h3.83c.53,0,.96,.43,.96,.96h0c0,.53-.43,.96-.96,.96h-3.83Zm-8.61,0c-.53,0-.96-.43-.96-.96h0c0-.53,.43-.96,.96-.96h3.83c.53,0,.96,.43,.96,.96h0c0,.53-.43,.96-.96,.96h-3.83Zm-8.62,0c-.53,0-.96-.43-.96-.96h0c0-.53,.43-.96,.96-.96h3.83c.53,0,.96,.43,.96,.96h0c0,.53-.43,.96-.96,.96h-3.83Zm-8.62,0c-.53,0-.96-.43-.96-.96h0c0-.53,.43-.96,.96-.96h3.83c.53,0,.96,.43,.96,.96h0c0,.53-.43,.96-.96,.96h-3.83Zm-8.61,0c-.53,0-.96-.43-.96-.96h0c0-.53,.43-.96,.96-.96h3.83c.53,0,.96,.43,.96,.96h0c0,.53-.43,.96-.96,.96h-3.83Z"/><path class="c" d="M31.4,114.08l-8.17-12.49-8.13,12.5c-.06,.09-.19,.28-.46,.29h0c-.1,0-.18-.03-.25-.06h-.02l-.02-.02-.25-.16c-.13-.09-.24-.26-.24-.43h0c0-.16,.07-.27,.12-.35h0l8.4-13-8.02-12.47c-.05-.08-.11-.18-.12-.35h0c0-.17,.11-.34,.25-.44h0l.24-.16h.02c.07-.05,.16-.07,.26-.07h0c.27,0,.4,.2,.47,.29h0l7.75,11.99,7.75-12c.06-.08,.19-.28,.46-.29h0c.09,0,.18,.03,.26,.07h.01l.02,.02,.25,.17c.13,.09,.24,.26,.23,.43h0c0,.17-.07,.27-.12,.35h0l-8.06,12.47,8.48,13c.05,.08,.12,.18,.12,.35h0c0,.17-.11,.34-.25,.44h0l-.25,.16h-.01c-.07,.04-.16,.07-.26,.07h0c-.28,0-.4-.2-.47-.29h0Z"/><path class="c" d="M61.6,114.3c-.32,0-.59-.27-.59-.59h0v-26.2c0-.32,.28-.59,.59-.59h.15c.32,0,.59,.27,.59,.59h0v26.2c0,.32-.27,.59-.59,.59h-.15Z"/><path class="c" d="M69.96,114.3c-.32,0-.59-.27-.59-.59h0v-26.2c0-.32,.28-.59,.59-.59h.15c.32,0,.59,.27,.59,.59h0v26.2c0,.32-.27,.59-.59,.59h-.15Z"/><path class="c" d="M55.29,86.92l-.13-.06c-.28-.12-.61,.05-.72,.37l-8.11,24.3-8.11-24.3c-.11-.32-.44-.48-.72-.37l-.13,.06c-.28,.12-.44,.49-.33,.81l8.68,26.01c.09,.28,.36,.43,.61,.38,.25,.04,.51-.11,.61-.38l8.68-26.01c.11-.32-.05-.69-.33-.81Z"/></svg>