<svg id="Livello_1" data-name="Livello 1" xmlns="http://www.w3.org/2000/svg" viewBox="0 0 85.04 57.49"><defs><style>.cls-1{fill:#1d1d1b;}</style></defs><path class="cls-1" d="M84.85,16a1.09,1.09,0,0,0-.92-.49H77.3l1.27-6.92a1.11,1.11,0,0,0-.24-.91,1.08,1.08,0,0,0-.85-.4H70.57v-6a1.12,1.12,0,0,0-.94-1.1A19.14,19.14,0,0,0,67.18,0,32.21,32.21,0,0,0,56.52,1.94a39.94,39.94,0,0,0-14.13,8.91A40.05,40.05,0,0,0,28.25,1.94,32.21,32.21,0,0,0,17.59,0a19.14,19.14,0,0,0-2.45.14,1.12,1.12,0,0,0-.94,1.1v6H7.56a1.08,1.08,0,0,0-.85.4,1.11,1.11,0,0,0-.24.91l1.27,6.92H1.11A1.1,1.1,0,0,0,.09,17l14.2,39.92h0l.07.13v0l.08.1,0,0,.09.1,0,0a.89.89,0,0,0,.25.16h0l.14,0h0a.35.35,0,0,0,.14,0h.34l.13,0h.09l.06,0h0l.06,0h0l.06,0,0,0a.1.1,0,0,0,.05,0l0,0,.06,0,0,0s0,0,0,0l0,0s0,0,0,0l0,0,0,0,0-.06v0l0-.06a0,0,0,0,0,0,0l0-.06a.06.06,0,0,1,0,0v0h0a22.34,22.34,0,0,1,4.72-8C24.66,44.65,30.7,40,40.93,37.21V44a1.11,1.11,0,0,0,1.29,1.09h0A16.85,16.85,0,0,1,44.53,45a28.62,28.62,0,0,1,10,1.87q-.15.44-.36.9a16.73,16.73,0,0,1-4.61,5.87,1.11,1.11,0,0,0-.12,1.57,1.07,1.07,0,0,0,.84.39,1.14,1.14,0,0,0,.72-.26,19.15,19.15,0,0,0,5.21-6.66c.14-.33.27-.64.38-.95a34.08,34.08,0,0,1,12,9.49,1.08,1.08,0,0,0,.86.41h.26a1.12,1.12,0,0,0,1-.68L85,17A1.12,1.12,0,0,0,84.85,16ZM2.78,17.68H8.15l4.2,28.86ZM14.2,44.29l-4-27.65v-.07a1.1,1.1,0,0,0-.1-.47L8.9,9.45h5.3Zm54.14,9.26a35.13,35.13,0,0,0-11.18-8,11.24,11.24,0,0,0,.19-2,7.77,7.77,0,0,0-.23-2,1.1,1.1,0,0,0-1.37-.77A1.13,1.13,0,0,0,55,42.09h0a5.48,5.48,0,0,1,.15,1.41,10.29,10.29,0,0,1-.08,1.16,30.93,30.93,0,0,0-10.52-1.92c-.53,0-1,0-1.38,0v-7a1.11,1.11,0,0,0-1.37-1.09C30.11,37.52,23.19,42.84,19.24,47.5a29.65,29.65,0,0,0-2.81,3.89V2.25l1.16,0A29.68,29.68,0,0,1,27.5,4,37.86,37.86,0,0,1,41.6,13.2a1.12,1.12,0,0,0,.79.32,1.08,1.08,0,0,0,.78-.32A37.94,37.94,0,0,1,57.27,4a29.68,29.68,0,0,1,9.91-1.81l1.16,0Zm2.23-7.8V9.45h5.57L74.92,16.1a1.1,1.1,0,0,0-.1.47v.07Zm2.12.79,4.2-28.86h5.36ZM31.58,50.46A3.56,3.56,0,1,0,35.15,54,3.54,3.54,0,0,0,31.58,50.46Z"/></svg>