<?xml version="1.0" encoding="utf-8"?>
<!-- Generator: Adobe Illustrator 26.2.1, SVG Export Plug-In . SVG Version: 6.00 Build 0)  -->
<svg version="1.1" id="Livello_1" xmlns="http://www.w3.org/2000/svg" xmlns:xlink="http://www.w3.org/1999/xlink" x="0px" y="0px"
	 viewBox="0 0 259 42.4" style="enable-background:new 0 0 259 42.4;" xml:space="preserve">
<path d="M62.6,11.6c-0.2-0.2-0.4-0.4-0.7-0.4h-4.9L58,6.2c0-0.2,0-0.5-0.2-0.7c-0.2-0.2-0.4-0.3-0.6-0.3h-5.1V0.8
	c0-0.4-0.3-0.7-0.7-0.8c0,0-0.7-0.1-1.8-0.1c-1.7,0-4.5,0.2-7.9,1.4c-3.2,1.1-6.8,3.1-10.4,6.6C27.7,4.4,24,2.4,20.9,1.3
	c-3.3-1.2-6.2-1.4-7.9-1.4c-1.1,0-1.8,0.1-1.8,0.1c-0.4,0.1-0.7,0.4-0.7,0.8v4.4H5.6C5.3,5.2,5.1,5.3,5,5.5C4.8,5.7,4.7,5.9,4.8,6.2
	l0.9,5.1H0.8c-0.3,0-0.5,0.1-0.7,0.4C0,11.9,0,12.1,0.1,12.4l10.5,29.5c0,0,0,0,0,0c0,0,0,0.1,0.1,0.1c0,0,0,0,0,0
	c0,0,0,0.1,0.1,0.1c0,0,0,0,0,0c0,0,0,0,0.1,0.1c0,0,0,0,0,0c0.1,0,0.1,0.1,0.2,0.1c0,0,0,0,0,0c0,0,0.1,0,0.1,0c0,0,0,0,0,0
	c0,0,0.1,0,0.1,0c0,0,0,0,0,0c0,0,0,0,0,0c0,0,0.1,0,0.1,0c0,0,0,0,0,0c0,0,0,0,0,0c0,0,0.1,0,0.1,0c0,0,0,0,0,0c0,0,0.1,0,0.1,0
	c0,0,0,0,0,0c0,0,0,0,0,0c0,0,0,0,0,0c0,0,0,0,0,0c0,0,0,0,0,0c0,0,0,0,0,0c0,0,0,0,0,0c0,0,0,0,0,0c0,0,0,0,0,0c0,0,0,0,0,0
	c0,0,0,0,0,0c0,0,0,0,0,0c0,0,0,0,0,0c0,0,0,0,0,0c0,0,0,0,0,0c0,0,0,0,0,0c0,0,0,0,0,0c0,0,0,0,0,0c0,0,0,0,0,0c0,0,0,0,0,0
	c0,0,0,0,0,0c0,0,0,0,0,0c0,0,0,0,0,0c0,0,0,0,0,0c0,0,0,0,0,0l0,0c0-0.1,0.8-2.8,3.5-5.9c2.6-3,7.1-6.5,14.6-8.5v5
	c0,0.2,0.1,0.5,0.3,0.6c0.2,0.2,0.4,0.2,0.7,0.2l0,0c0,0,0.7-0.1,1.7-0.1c1.6,0,4.3,0.2,7.4,1.4c-0.1,0.2-0.2,0.4-0.3,0.7
	c-0.6,1.3-1.6,2.8-3.4,4.3c-0.3,0.3-0.4,0.8-0.1,1.2c0.2,0.2,0.4,0.3,0.6,0.3c0.2,0,0.4-0.1,0.5-0.2c2-1.7,3.2-3.4,3.8-4.9
	c0.1-0.2,0.2-0.5,0.3-0.7c2.9,1.3,6,3.5,8.9,7c0.2,0.2,0.4,0.3,0.6,0.3c0,0,0.1,0,0.1,0c0,0,0.1,0,0.1,0c0.3,0,0.6-0.2,0.8-0.5
	l10.5-29.5C62.8,12.1,62.8,11.9,62.6,11.6z M2.1,12.9h4l3.1,21.3L2.1,12.9z M10.5,32.5L7.5,12.1c0,0,0,0,0-0.1c0-0.1,0-0.2-0.1-0.3
	L6.6,6.8h3.9V32.5z M50.4,39.4c-2.7-2.9-5.6-4.7-8.3-5.9c0.1-0.6,0.1-1.1,0.1-1.5c0-0.9-0.2-1.4-0.2-1.5c-0.1-0.4-0.6-0.7-1-0.6
	c-0.4,0.1-0.7,0.6-0.6,1l0,0c0,0,0.1,0.4,0.1,1c0,0.2,0,0.5-0.1,0.9c-3.2-1.2-6-1.4-7.8-1.4c-0.4,0-0.7,0-1,0v-5.2
	c0-0.3-0.1-0.5-0.3-0.6c-0.2-0.2-0.5-0.2-0.7-0.2c-8.6,2.1-13.7,6-16.6,9.5c-0.9,1-1.6,2-2.1,2.9V1.5c0.2,0,0.5,0,0.9,0
	c1.6,0,4.2,0.2,7.3,1.3C23.4,4,27.1,6,30.7,9.6c0.2,0.2,0.4,0.2,0.6,0.2c0.2,0,0.4-0.1,0.6-0.2C35.5,6,39.1,4,42.3,2.8
	c3.1-1.1,5.8-1.3,7.3-1.3c0.3,0,0.6,0,0.9,0V39.4z M52.1,33.6V6.8h4.1l-0.9,4.9c0,0.1-0.1,0.2-0.1,0.3c0,0,0,0,0,0.1L52.1,33.6z
	 M53.7,34.2l3.1-21.3h4L53.7,34.2z M23.3,37.1c-1.5,0-2.6,1.2-2.6,2.6c0,1.5,1.2,2.6,2.6,2.6c1.5,0,2.6-1.2,2.6-2.6
	C25.9,38.3,24.8,37.1,23.3,37.1z"/>
<g>
	<g>
		<path d="M100.2,8.9h-4.6V1.7h1.1v6.2h3.5L100.2,8.9z"/>
		<path d="M101.8,1.9L101,1.7c0.9-1.5,1.2-2.3,1.3-3.2h1.2C103.1-0.3,102.9,0.3,101.8,1.9z"/>
		<path d="M105.1,8.9V1.7h1.1v7.2H105.1z"/>
		<path d="M110.9,9c-0.9,0-1.9-0.2-2.4-0.5l0.3-1c0.6,0.4,1.3,0.6,2.1,0.6c0.9,0,1.5-0.4,1.5-1c0-1.6-3.7-1.4-3.7-3.5
			c0-1.3,1.2-2,2.6-2c0.6,0,1.4,0.1,1.9,0.2l-0.2,1c-0.4-0.2-1.1-0.3-1.7-0.3c-1.1,0-1.6,0.4-1.6,0.9c0,1.4,3.7,1.3,3.7,3.5
			C113.5,8.2,112.5,9,110.9,9z"/>
		<path d="M118.9,9c-2,0-3.8-1.4-3.8-3.6c0-2.5,1.8-3.9,4-3.9c1.9,0,3.7,1.4,3.7,3.6C122.8,7.6,121,9,118.9,9z M119,2.5
			c-1.5,0-2.7,0.9-2.7,2.8c0,1.8,1.2,2.8,2.7,2.8c1.6,0,2.8-1.2,2.8-2.9C121.7,3.4,120.4,2.5,119,2.5z"/>
		<path d="M129.5,8.9H125V1.7h1.1v6.2h3.5L129.5,8.9z"/>
		<path d="M136.3,8.9l-1-2.3h-3l-0.9,2.3h-1.1l3-7.2h1.1l2.9,7.2L136.3,8.9z M134,3.3c-0.1-0.1-0.1-0.3-0.1-0.5h-0.1
			c0,0.2-0.1,0.4-0.1,0.5l-1,2.5h2.4L134,3.3z"/>
		<path d="M109.7,23.5c-0.1,0.4-0.2,1-0.2,1.4h-0.8c0-0.3,0-0.7,0.1-1h-0.1l-1.6,1c-0.2,0.1-0.3,0.1-0.5,0.1c-0.6,0-1-0.5-1-1.6
			c0-2.4,1.7-4,3-4c0.2,0,0.4,0,1.1,0.2l0.9-3.3l0.8-0.1L109.7,23.5z M109.8,20.2c-0.8-0.2-0.9-0.2-1.1-0.2c-0.8,0-2.1,1.4-2.1,3.4
			c0,0.2,0,0.4,0.1,0.6l0.3,0.2c0.5-0.2,1.4-0.6,2-1L109.8,20.2z"/>
		<path d="M112.7,22.4h-0.3c0,0.2,0,0.4,0,0.6c0,0.8,0.3,1.3,0.9,1.3c0.3,0,0.6-0.1,1.8-0.9l0.3,0.6c-1.2,0.9-1.7,1-2.2,1
			c-0.9,0-1.6-0.7-1.6-1.9c0-2.3,1.6-3.7,2.8-3.7c0.8,0,1.3,0.4,1.3,1.2C115.7,21.5,114.7,22.4,112.7,22.4z M114.3,20
			c-0.6,0-1.4,0.7-1.7,1.9h0.2c1.3,0,2.1-0.5,2.1-1.3C114.9,20.2,114.6,20,114.3,20z"/>
		<path d="M117.1,24.9h-0.8l2.3-8.6l0.8-0.1L117.1,24.9z"/>
		<path d="M120,24.9h-0.8l2.3-8.6l0.8-0.1L120,24.9z"/>
		<path d="M123.4,22.4h-0.3c0,0.2,0,0.4,0,0.6c0,0.8,0.3,1.3,0.9,1.3c0.3,0,0.6-0.1,1.8-0.9L126,24c-1.2,0.9-1.7,1-2.2,1
			c-0.9,0-1.6-0.7-1.6-1.9c0-2.3,1.6-3.7,2.8-3.7c0.8,0,1.3,0.4,1.3,1.2C126.4,21.5,125.4,22.4,123.4,22.4z M124.9,20
			c-0.6,0-1.4,0.7-1.7,1.9h0.2c1.3,0,2.1-0.5,2.1-1.3C125.6,20.2,125.3,20,124.9,20z"/>
		<path d="M97.5,41c-1,0-2-0.2-2.5-0.6l0.3-1.1c0.7,0.4,1.4,0.6,2.3,0.6c1,0,1.6-0.4,1.6-1.1c0-1.6-3.9-1.4-3.9-3.7
			c0-1.3,1.2-2.1,2.8-2.1c0.7,0,1.4,0.1,2,0.3l-0.2,1.1c-0.4-0.2-1.2-0.3-1.8-0.3c-1.2,0-1.7,0.4-1.7,1c0,1.4,3.9,1.3,3.9,3.7
			C100.2,40.1,99.2,41,97.5,41z"/>
		<path d="M108.6,34.3h-3v6.6h-1.1v-6.6h-3l-0.1-1h7.2L108.6,34.3z"/>
		<path d="M113.7,41c-2.1,0-4-1.5-4-3.8c0-2.6,1.9-4.1,4.2-4.1c2,0,3.9,1.5,3.9,3.8C117.9,39.5,115.9,41,113.7,41z M113.9,34.1
			c-1.5,0-2.9,1-2.9,3c0,1.9,1.2,3,2.8,3c1.7,0,2.9-1.2,2.9-3C116.7,35,115.3,34.1,113.9,34.1z"/>
		<path d="M125.1,40.9l-2.7-3.3h-1.2v3.2h-1.1v-7.6h0.6c0.2,0,1.3-0.1,1.8-0.1c1.6,0,2.6,0.7,2.6,2.1c0,1.1-0.7,1.8-1.7,2.1l2.8,3.4
			L125.1,40.9z M122.4,34.1c-0.3,0-0.9,0-1.2,0v2.7h1.2c0.9,0,1.6-0.5,1.6-1.4C124,34.6,123.4,34.1,122.4,34.1z"/>
		<path d="M127.8,40.9v-7.6h1.1v7.6H127.8z"/>
		<path d="M137,40.9h-5.1v-7.6h4.9l-0.1,1H133v2.2h3.5v1H133v2.4h4L137,40.9z"/>
	</g>
	<path d="M134.6,23.6c-0.4,0-0.7-0.3-0.7-0.7l0,0c0-0.4,0.3-0.7,0.7-0.7l0,0h2.3c0.4,0,0.7,0.3,0.7,0.7l0,0c0,0.4-0.3,0.7-0.7,0.7
		l0,0H134.6L134.6,23.6z M95.3,23.6c-0.4,0-0.7-0.3-0.7-0.7l0,0c0-0.4,0.3-0.7,0.7-0.7l0,0h2.9c0.4,0,0.7,0.3,0.7,0.7l0,0
		c0,0.4-0.3,0.7-0.7,0.7l0,0H95.3L95.3,23.6z"/>
</g>
<path d="M78.7,2.3C78.7,2.7,78.4,3,78,3l0,0c-0.4,0-0.7-0.3-0.7-0.7l0,0V0c0-0.4,0.3-0.7,0.7-0.7l0,0c0.4,0,0.7,0.3,0.7,0.7l0,0V2.3
	L78.7,2.3z M78.7,8.8c0,0.4-0.3,0.7-0.7,0.7l0,0c-0.4,0-0.7-0.3-0.7-0.7l0,0V5.9c0-0.4,0.3-0.7,0.7-0.7l0,0c0.4,0,0.7,0.3,0.7,0.7
	l0,0V8.8L78.7,8.8z M78.7,15.2c0,0.4-0.3,0.7-0.7,0.7l0,0c-0.4,0-0.7-0.3-0.7-0.7l0,0v-2.9c0-0.4,0.3-0.7,0.7-0.7l0,0
	c0.4,0,0.7,0.3,0.7,0.7l0,0V15.2L78.7,15.2z M78.7,21.7c0,0.4-0.3,0.7-0.7,0.7l0,0c-0.4,0-0.7-0.3-0.7-0.7l0,0v-2.9
	c0-0.4,0.3-0.7,0.7-0.7l0,0c0.4,0,0.7,0.3,0.7,0.7l0,0V21.7L78.7,21.7z M78.7,28.2c0,0.4-0.3,0.7-0.7,0.7l0,0
	c-0.4,0-0.7-0.3-0.7-0.7l0,0v-2.9c0-0.4,0.3-0.7,0.7-0.7l0,0c0.4,0,0.7,0.3,0.7,0.7l0,0V28.2L78.7,28.2z M78.7,34.6
	c0,0.4-0.3,0.7-0.7,0.7l0,0c-0.4,0-0.7-0.3-0.7-0.7l0,0v-2.9c0-0.4,0.3-0.7,0.7-0.7l0,0c0.4,0,0.7,0.3,0.7,0.7l0,0V34.6L78.7,34.6z
	 M78.7,41.1c0,0.4-0.3,0.7-0.7,0.7l0,0c-0.4,0-0.7-0.3-0.7-0.7l0,0v-2.9c0-0.4,0.3-0.7,0.7-0.7l0,0c0.4,0,0.7,0.3,0.7,0.7l0,0V41.1
	L78.7,41.1z"/>
<path d="M156,2.3c0,0.4-0.3,0.7-0.7,0.7l0,0c-0.4,0-0.7-0.3-0.7-0.7l0,0V0c0-0.4,0.3-0.7,0.7-0.7l0,0c0.4,0,0.7,0.3,0.7,0.7l0,0V2.3
	L156,2.3z M156,8.8c0,0.4-0.3,0.7-0.7,0.7l0,0c-0.4,0-0.7-0.3-0.7-0.7l0,0V5.9c0-0.4,0.3-0.7,0.7-0.7l0,0c0.4,0,0.7,0.3,0.7,0.7l0,0
	V8.8L156,8.8z M156,15.2c0,0.4-0.3,0.7-0.7,0.7l0,0c-0.4,0-0.7-0.3-0.7-0.7l0,0v-2.9c0-0.4,0.3-0.7,0.7-0.7l0,0
	c0.4,0,0.7,0.3,0.7,0.7l0,0V15.2L156,15.2z M156,21.7c0,0.4-0.3,0.7-0.7,0.7l0,0c-0.4,0-0.7-0.3-0.7-0.7l0,0v-2.9
	c0-0.4,0.3-0.7,0.7-0.7l0,0c0.4,0,0.7,0.3,0.7,0.7l0,0V21.7L156,21.7z M156,28.2c0,0.4-0.3,0.7-0.7,0.7l0,0c-0.4,0-0.7-0.3-0.7-0.7
	l0,0v-2.9c0-0.4,0.3-0.7,0.7-0.7l0,0c0.4,0,0.7,0.3,0.7,0.7l0,0V28.2L156,28.2z M156,34.6c0,0.4-0.3,0.7-0.7,0.7l0,0
	c-0.4,0-0.7-0.3-0.7-0.7l0,0v-2.9c0-0.4,0.3-0.7,0.7-0.7l0,0c0.4,0,0.7,0.3,0.7,0.7l0,0V34.6L156,34.6z M156,41.1
	c0,0.4-0.3,0.7-0.7,0.7l0,0c-0.4,0-0.7-0.3-0.7-0.7l0,0v-2.9c0-0.4,0.3-0.7,0.7-0.7l0,0c0.4,0,0.7,0.3,0.7,0.7l0,0V41.1L156,41.1z"
	/>
<g>
	<path d="M197,42l-12.6-19.3L171.8,42c-0.1,0.1-0.3,0.4-0.7,0.4l0,0c-0.2,0-0.3,0-0.4-0.1l0,0l0,0l0,0l-0.4-0.2
		c-0.2-0.1-0.4-0.4-0.4-0.7l0,0c0-0.2,0.1-0.4,0.2-0.5l0,0l0,0l13-20.1L170.7,1.5c-0.1-0.1-0.2-0.3-0.2-0.5l0,0
		c0-0.3,0.2-0.5,0.4-0.7l0,0l0.4-0.2l0,0c0.1-0.1,0.2-0.1,0.4-0.1l0,0c0.4,0,0.6,0.3,0.7,0.5l0,0l12,18.5l12-18.5
		c0.1-0.1,0.3-0.4,0.7-0.4l0,0c0.1,0,0.3,0,0.4,0.1l0,0l0,0l0,0l0.4,0.3c0.2,0.1,0.4,0.4,0.4,0.7l0,0c0,0.3-0.1,0.4-0.2,0.5l0,0
		l-12.4,19.2l13.1,20.1c0.1,0.1,0.2,0.3,0.2,0.5l0,0c0,0.3-0.2,0.5-0.4,0.7l0,0l-0.4,0.3l0,0c-0.1,0.1-0.2,0.1-0.4,0.1l0,0
		C197.3,42.4,197.1,42.1,197,42L197,42z"/>
</g>
<g>
	<path d="M244.8,42.3c-0.5,0-0.9-0.4-0.9-0.9l0,0V1c0-0.5,0.4-0.9,0.9-0.9l0,0h0.2c0.5,0,0.9,0.4,0.9,0.9l0,0v40.5
		c0,0.5-0.4,0.9-0.9,0.9l0,0H244.8L244.8,42.3z"/>
</g>
<g>
	<path d="M257.8,42.3c-0.5,0-0.9-0.4-0.9-0.9l0,0V1c0-0.5,0.4-0.9,0.9-0.9l0,0h0.2c0.5,0,0.9,0.4,0.9,0.9l0,0v40.5
		c0,0.5-0.4,0.9-0.9,0.9l0,0H257.8L257.8,42.3z"/>
</g>
<path d="M236.9,0.1L236.6,0c-0.5-0.2-1.1,0.1-1.2,0.6l-14,37.5l-14-37.5c-0.2-0.5-0.8-0.7-1.2-0.6l-0.2,0.1
	c-0.5,0.2-0.8,0.7-0.6,1.2l15,40.2c0.2,0.4,0.6,0.7,1.1,0.6c0.4,0.1,0.9-0.2,1.1-0.6l15-40.2C237.6,0.8,237.3,0.3,236.9,0.1z"/>
</svg>
