<svg id="Livello_1" data-name="Livello 1" xmlns="http://www.w3.org/2000/svg" viewBox="0 0 85.04 156.56"><defs><style>.cls-1{fill:#1d1d1b;}</style></defs><path class="cls-1" d="M84.85,16a1.09,1.09,0,0,0-.92-.49H77.3l1.27-6.92a1.11,1.11,0,0,0-.24-.91,1.08,1.08,0,0,0-.85-.4H70.57v-6a1.12,1.12,0,0,0-.94-1.1A19.14,19.14,0,0,0,67.18,0,32.21,32.21,0,0,0,56.52,1.94a39.94,39.94,0,0,0-14.13,8.91A40.05,40.05,0,0,0,28.25,1.94,32.21,32.21,0,0,0,17.59,0a19.14,19.14,0,0,0-2.45.14,1.12,1.12,0,0,0-.94,1.1v6H7.56a1.08,1.08,0,0,0-.85.4,1.11,1.11,0,0,0-.24.91l1.27,6.92H1.11A1.1,1.1,0,0,0,.09,17l14.2,39.92h0l.07.13v0l.08.1,0,0,.09.1,0,0a.89.89,0,0,0,.25.16h0l.14,0h0a.35.35,0,0,0,.14,0h.34l.13,0h.09l.06,0h0l.06,0h0l.06,0,0,0a.1.1,0,0,0,.05,0l0,0,.06,0,0,0s0,0,0,0l0,0s0,0,0,0l0,0,0,0,0-.06v0l0-.06a0,0,0,0,0,0,0l0-.06a.06.06,0,0,1,0,0v0h0a22.34,22.34,0,0,1,4.72-8C24.66,44.65,30.7,40,40.93,37.21V44a1.11,1.11,0,0,0,1.29,1.09h0A16.85,16.85,0,0,1,44.53,45a28.62,28.62,0,0,1,10,1.87q-.15.44-.36.9a16.73,16.73,0,0,1-4.61,5.87,1.11,1.11,0,0,0-.12,1.57,1.07,1.07,0,0,0,.84.39,1.14,1.14,0,0,0,.72-.26,19.15,19.15,0,0,0,5.21-6.66c.14-.33.27-.64.38-.95a34.08,34.08,0,0,1,12,9.49,1.08,1.08,0,0,0,.86.41h.26a1.12,1.12,0,0,0,1-.68L85,17A1.12,1.12,0,0,0,84.85,16ZM2.78,17.68H8.15l4.2,28.86ZM14.2,44.29l-4-27.65v-.07a1.1,1.1,0,0,0-.1-.47L8.9,9.45h5.3Zm54.14,9.26a35.13,35.13,0,0,0-11.18-8,11.24,11.24,0,0,0,.19-2,7.77,7.77,0,0,0-.23-2,1.1,1.1,0,0,0-1.37-.77A1.13,1.13,0,0,0,55,42.09h0a5.48,5.48,0,0,1,.15,1.41,10.29,10.29,0,0,1-.08,1.16,30.93,30.93,0,0,0-10.52-1.92c-.53,0-1,0-1.38,0v-7a1.11,1.11,0,0,0-1.37-1.09C30.11,37.52,23.19,42.84,19.24,47.5a29.65,29.65,0,0,0-2.81,3.89V2.25l1.16,0A29.68,29.68,0,0,1,27.5,4,37.86,37.86,0,0,1,41.6,13.2a1.12,1.12,0,0,0,.79.32,1.08,1.08,0,0,0,.78-.32A37.94,37.94,0,0,1,57.27,4a29.68,29.68,0,0,1,9.91-1.81l1.16,0Zm2.23-7.8V9.45h5.57L74.92,16.1a1.1,1.1,0,0,0-.1.47v.07Zm2.12.79,4.2-28.86h5.36ZM31.58,50.46A3.56,3.56,0,1,0,35.15,54,3.54,3.54,0,0,0,31.58,50.46Z"/><path class="cls-1" d="M21.27,98.36h-6V88.9h1.42v8.21h4.66Z"/><path class="cls-1" d="M23.27,89.11l-1.05-.19c1.18-2,2.09-3,2.32-4.24h1.51C25.64,86.32,24.71,87.1,23.27,89.11Z"/><path class="cls-1" d="M27.67,98.36V88.9H29.1v9.46Z"/><path class="cls-1" d="M35.26,98.55a6.78,6.78,0,0,1-3.16-.7l.4-1.33a5.2,5.2,0,0,0,2.81.78c1.2,0,2-.48,2-1.37,0-2.05-4.88-1.81-4.88-4.6,0-1.65,1.54-2.62,3.47-2.62a9.07,9.07,0,0,1,2.47.32l-.24,1.35A6.65,6.65,0,0,0,35.86,90c-1.46,0-2.07.48-2.07,1.24,0,1.8,4.88,1.65,4.88,4.63C38.67,97.47,37.4,98.55,35.26,98.55Z"/><path class="cls-1" d="M45.78,98.55a4.78,4.78,0,0,1-5-4.73,5,5,0,0,1,5.25-5.11A4.75,4.75,0,0,1,51,93.46,4.94,4.94,0,0,1,45.78,98.55ZM46,89.91a3.46,3.46,0,0,0-3.61,3.74,3.42,3.42,0,0,0,3.5,3.7,3.51,3.51,0,0,0,3.63-3.76A3.41,3.41,0,0,0,46,89.91Z"/><path class="cls-1" d="M59.78,98.36h-6V88.9h1.43v8.21h4.65Z"/><path class="cls-1" d="M68.71,98.42l-1.25-3.06h-4l-1.21,3H60.87l3.91-9.46h1.46l3.88,9.4Zm-3-7.41a2.69,2.69,0,0,1-.15-.7h-.13a2.88,2.88,0,0,1-.15.7l-1.35,3.27H67Z"/><path class="cls-1" d="M34.23,117.52a8.69,8.69,0,0,0-.24,1.84H33a7.29,7.29,0,0,1,.14-1.31h-.08L31,119.35a.87.87,0,0,1-.59.17c-.76,0-1.27-.67-1.27-2.13,0-3.1,2.29-5.27,4-5.27a9.66,9.66,0,0,1,1.5.23L35.75,108l1.06-.08Zm.12-4.26a7.15,7.15,0,0,0-1.41-.24c-1.11,0-2.77,1.87-2.77,4.48a3,3,0,0,0,.11.82l.42.22a24.28,24.28,0,0,0,2.59-1.26Z"/><path class="cls-1" d="M38.26,116.18h-.43a6.4,6.4,0,0,0,0,.73c0,1,.44,1.67,1.19,1.67.45,0,.78-.08,2.33-1.14l.34.74c-1.63,1.15-2.19,1.34-2.86,1.34-1.22,0-2.05-.93-2.05-2.51,0-3,2.05-4.89,3.71-4.89a1.49,1.49,0,0,1,1.7,1.58C42.14,115,40.81,116.18,38.26,116.18Zm2-3.24c-.83,0-1.85.88-2.28,2.5h.3c1.73,0,2.82-.61,2.82-1.7A.76.76,0,0,0,40.26,112.94Z"/><path class="cls-1" d="M44,119.36H43L46,108l1.07-.08Z"/><path class="cls-1" d="M47.73,119.36h-1l3-11.33,1.08-.08Z"/><path class="cls-1" d="M52.28,116.18h-.43a4.72,4.72,0,0,0-.05.73c0,1,.43,1.67,1.18,1.67.45,0,.79-.08,2.34-1.14l.34.74c-1.64,1.15-2.2,1.34-2.87,1.34-1.22,0-2-.93-2-2.51,0-3,2-4.89,3.72-4.89a1.48,1.48,0,0,1,1.69,1.58C56.15,115,54.82,116.18,52.28,116.18Zm2-3.24c-.83,0-1.86.88-2.29,2.5h.31c1.72,0,2.81-.61,2.81-1.7A.75.75,0,0,0,54.28,112.94Z"/><path class="cls-1" d="M18.16,140.56a7.15,7.15,0,0,1-3.32-.74l.42-1.4a5.44,5.44,0,0,0,3,.82c1.26,0,2.06-.5,2.06-1.44,0-2.16-5.14-1.9-5.14-4.84,0-1.74,1.62-2.76,3.66-2.76a9.63,9.63,0,0,1,2.6.34L21.14,132a7,7,0,0,0-2.34-.44c-1.54,0-2.18.5-2.18,1.3,0,1.9,5.14,1.74,5.14,4.88C21.76,139.42,20.42,140.56,18.16,140.56Z"/><path class="cls-1" d="M32.76,131.7H28.88v8.66H27.4V131.7H23.52l-.1-1.3h9.46Z"/><path class="cls-1" d="M39.54,140.56a5,5,0,0,1-5.22-5,5.22,5.22,0,0,1,5.52-5.38,5,5,0,0,1,5.16,5A5.2,5.2,0,0,1,39.54,140.56Zm.18-9.1a3.65,3.65,0,0,0-3.8,3.94,3.6,3.6,0,0,0,3.68,3.9,3.69,3.69,0,0,0,3.82-4A3.59,3.59,0,0,0,39.72,131.46Z"/><path class="cls-1" d="M54.48,140.48l-3.6-4.28H49.36v4.16H47.94v-10h.76c.28,0,1.68-.08,2.4-.08,2.12,0,3.48,1,3.48,2.74a2.77,2.77,0,0,1-2.22,2.78l3.7,4.42Zm-3.56-9c-.42,0-1.22,0-1.56,0v3.54H51a1.88,1.88,0,0,0,2.1-1.86C53.1,132.1,52.3,131.48,50.92,131.48Z"/><path class="cls-1" d="M58.1,140.36v-10h1.5v10Z"/><path class="cls-1" d="M70.14,140.36h-6.7v-10h6.48l-.1,1.3h-4.9v2.94h4.54v1.26H64.92v3.16h5.3Z"/><path class="cls-1" d="M67,117.75a1,1,0,0,1-1-1h0a1,1,0,0,1,1-1h3.08a1,1,0,0,1,1,1h0a1,1,0,0,1-1,1H67Zm-51.69,0a1,1,0,0,1-1-1h0a1,1,0,0,1,1-1h3.82a1,1,0,0,1,1,1h0a1,1,0,0,1-1,1H15.29Z"/><path class="cls-1" d="M67,73.57a1,1,0,0,1-1-1h0a1,1,0,0,1,1-1h3.08a1,1,0,0,1,1,1h0a1,1,0,0,1-1,1H67Zm-8.62,0a1,1,0,0,1-1-1h0a1,1,0,0,1,1-1h3.83a1,1,0,0,1,1,1h0a1,1,0,0,1-1,1H58.36Zm-8.61,0a1,1,0,0,1-1-1h0a1,1,0,0,1,1-1h3.83a1,1,0,0,1,1,1h0a1,1,0,0,1-1,1H49.75Zm-8.62,0a1,1,0,0,1-1-1h0a1,1,0,0,1,1-1H45a1,1,0,0,1,1,1h0a1,1,0,0,1-1,1H41.13Zm-8.61,0a1,1,0,0,1-1-1h0a1,1,0,0,1,1-1h3.83a1,1,0,0,1,.95,1h0a1,1,0,0,1-.95,1H32.52Zm-8.62,0a1,1,0,0,1-1-1h0a1,1,0,0,1,1-1h3.83a1,1,0,0,1,1,1h0a1,1,0,0,1-1,1H23.9Zm-8.61,0a1,1,0,0,1-1-1h0a1,1,0,0,1,1-1h3.82a1,1,0,0,1,1,1h0a1,1,0,0,1-1,1H15.29Z"/><path class="cls-1" d="M67,156.56a1,1,0,0,1-1-1h0a1,1,0,0,1,1-1h3.08a1,1,0,0,1,1,1h0a1,1,0,0,1-1,1H67Zm-8.62,0a1,1,0,0,1-1-1h0a1,1,0,0,1,1-1h3.83a1,1,0,0,1,1,1h0a1,1,0,0,1-1,1H58.36Zm-8.61,0a1,1,0,0,1-1-1h0a1,1,0,0,1,1-1h3.83a1,1,0,0,1,1,1h0a1,1,0,0,1-1,1H49.75Zm-8.62,0a1,1,0,0,1-1-1h0a1,1,0,0,1,1-1H45a1,1,0,0,1,1,1h0a1,1,0,0,1-1,1H41.13Zm-8.61,0a1,1,0,0,1-1-1h0a1,1,0,0,1,1-1h3.83a1,1,0,0,1,.95,1h0a1,1,0,0,1-.95,1H32.52Zm-8.62,0a1,1,0,0,1-1-1h0a1,1,0,0,1,1-1h3.83a1,1,0,0,1,1,1h0a1,1,0,0,1-1,1H23.9Zm-8.61,0a1,1,0,0,1-1-1h0a1,1,0,0,1,1-1h3.82a1,1,0,0,1,1,1h0a1,1,0,0,1-1,1H15.29Z"/></svg>