<svg id="Livello_1" data-name="Livello 1" xmlns="http://www.w3.org/2000/svg" viewBox="0 0 200 200"><defs><style>.cls-1{opacity:0.5;}</style></defs><path d="M81.05,0H16.22A16.22,16.22,0,0,0,0,16.22V183.78A16.22,16.22,0,0,0,16.22,200H81.05a16.22,16.22,0,0,0,16.22-16.22V16.22A16.22,16.22,0,0,0,81.05,0ZM48.64,8.18a2.28,2.28,0,1,1-2.28,2.27A2.27,2.27,0,0,1,48.64,8.18Zm-5.91,7.27H54.55a1.82,1.82,0,0,1,0,3.64H42.73a1.82,1.82,0,1,1,0-3.64Zm5.91,179.1a7.73,7.73,0,1,1,7.72-7.73A7.73,7.73,0,0,1,48.64,194.55ZM90,172.73H7.27V28.18H90Z"/><path class="cls-1" d="M200,183.78V119a16.22,16.22,0,0,0-16.22-16.22H16.22A16.22,16.22,0,0,0,0,119v64.83A16.22,16.22,0,0,0,16.22,200H183.78A16.22,16.22,0,0,0,200,183.78Zm-8.18-32.42a2.28,2.28,0,1,1-2.27-2.27A2.28,2.28,0,0,1,191.82,151.36Zm-7.27-5.91v11.82a1.82,1.82,0,0,1-3.64,0V145.45a1.82,1.82,0,0,1,3.64,0ZM5.45,151.36a7.73,7.73,0,1,1,7.73,7.73A7.73,7.73,0,0,1,5.45,151.36Zm21.82,41.37V110H171.82v82.73Z"/><path d="M133.64,24.1V10.18L114.55,27.77l19.09,17.59V32.28a49.82,49.82,0,0,1,49.54,49.77h8.18A58,58,0,0,0,133.64,24.1Z"/></svg>