<?xml version="1.0" encoding="utf-8"?>
<!-- Generator: Adobe Illustrator 26.2.0, SVG Export Plug-In . SVG Version: 6.00 Build 0)  -->
<svg version="1.1" id="Livello_1" xmlns="http://www.w3.org/2000/svg" xmlns:xlink="http://www.w3.org/1999/xlink" x="0px" y="0px"
	 viewBox="0 0 85 57.5" style="enable-background:new 0 0 85 57.5;" xml:space="preserve">
<style type="text/css">
	.st0{fill:#EFEFEF;}
</style>
<path class="st0" d="M84.8,16c-0.2-0.3-0.6-0.5-0.9-0.5h-6.6l1.3-6.9c0.1-0.3,0-0.7-0.2-0.9c-0.2-0.3-0.5-0.4-0.8-0.4h-6.9v-6
	c0-0.5-0.4-1-0.9-1.1C68.8,0.1,68,0,67.2,0c-3.6,0-7.2,0.7-10.7,1.9c-5.3,1.9-10.1,5-14.1,8.9c-4-3.9-8.9-7-14.1-8.9
	C24.8,0.7,21.2,0,17.6,0c-0.8,0-1.6,0-2.4,0.1c-0.5,0.1-0.9,0.6-0.9,1.1v6H7.6c-0.3,0-0.6,0.1-0.8,0.4C6.5,7.9,6.4,8.2,6.5,8.6
	l1.3,6.9H1.1C0.5,15.5,0,16,0,16.6c0,0.2,0,0.3,0.1,0.4l14.2,39.9l0,0l0.1,0.1l0,0l0.1,0.1l0,0l0.1,0.1l0,0c0.1,0.1,0.2,0.1,0.2,0.2
	l0,0h0.1l0,0c0,0,0.1,0,0.1,0h0.3h0.1h0.1h0.1l0,0h0.1l0,0h0.1l0,0c0,0,0,0,0.1,0l0,0h0.1l0,0l0,0l0,0l0,0l0,0l0,0v-0.1l0,0v-0.1
	l0,0v-0.1l0,0l0,0l0,0c1-3,2.6-5.7,4.7-8c4-4.6,10.1-9.2,20.3-12V44c0,0.6,0.5,1.1,1.1,1.1c0.1,0,0.1,0,0.2,0l0,0
	C43,45,43.8,45,44.5,45c3.4,0,6.8,0.7,10,1.9c-0.1,0.3-0.2,0.6-0.4,0.9c-1.1,2.3-2.7,4.3-4.6,5.9c-0.5,0.4-0.5,1.1-0.1,1.6
	c0,0,0,0,0,0c0.2,0.3,0.5,0.4,0.8,0.4c0.3,0,0.5-0.1,0.7-0.3c2.2-1.8,4-4.1,5.2-6.7c0.1-0.3,0.3-0.6,0.4-1c4.7,2.2,8.8,5.5,12,9.5
	c0.2,0.3,0.5,0.4,0.9,0.4h0.3c0.4,0,0.8-0.3,1-0.7L85,17C85.1,16.7,85.1,16.3,84.8,16z M2.8,17.7h5.4l4.2,28.9L2.8,17.7z M14.2,44.3
	l-4-27.6v-0.1c0-0.2,0-0.3-0.1-0.5L8.9,9.4h5.3V44.3z M68.3,53.6c-3.2-3.4-7-6.1-11.2-8c0.1-0.7,0.2-1.3,0.2-2c0-0.7-0.1-1.3-0.2-2
	c-0.2-0.6-0.8-0.9-1.3-0.8c0,0,0,0,0,0c-0.5,0.2-0.9,0.7-0.7,1.3l0,0c0.1,0.5,0.2,0.9,0.2,1.4c0,0.4,0,0.8-0.1,1.2
	c-3.4-1.2-6.9-1.9-10.5-1.9c-0.5,0-1,0-1.4,0v-7c0-0.6-0.5-1.1-1.1-1.1c-0.1,0-0.2,0-0.3,0c-11.7,2.9-18.6,8.2-22.6,12.8
	c-1,1.2-2,2.5-2.8,3.9V2.2h1.2c3.4,0,6.7,0.6,9.9,1.8c5.3,2,10.2,5.1,14.1,9.2c0.2,0.2,0.5,0.3,0.8,0.3c0.3,0,0.6-0.1,0.8-0.3
	c4-4.1,8.8-7.2,14.1-9.2c3.2-1.2,6.5-1.8,9.9-1.8h1.2L68.3,53.6z M70.6,45.8V9.4h5.6l-1.2,6.7c-0.1,0.1-0.1,0.3-0.1,0.5v0.1
	L70.6,45.8z M72.7,46.5l4.2-28.9h5.4L72.7,46.5z M31.6,50.5c-2,0-3.6,1.6-3.5,3.6c0,2,1.6,3.6,3.6,3.5s3.6-1.6,3.5-3.6c0,0,0,0,0,0
	C35.2,52,33.6,50.5,31.6,50.5C31.6,50.5,31.6,50.5,31.6,50.5z"/>
</svg>
